#!OML:ASF H:\Terrain\Patient Classification 1\Animal2\Wednesday\Animal2.ASF
:FULLY-SPECIFIED
:DEGREES
1
root 15.7462 15.9388 -20.3101 9.23734 -10.2472 -0.621579
lowerback 12.5202 -0.747171 2.29562
upperback 5.7624 -0.746518 0.3946
thorax -1.00659 -0.350072 -0.784881
lowerneck 7.28639 5.52602 17.0891
upperneck 11.8641 9.60408 -16.4585
head 3.89384 5.05481 -7.83376
rclavicle -5.06901e-015 1.58034e-014
rhumerus -25.3816 28.0381 -98.7953
rradius 135.279
rwrist 1.45759
rhand -50.0452 28.768
rfingers 7.12502
rthumb -22.6325 0.0749333
lclavicle -5.06901e-015 1.58034e-014
lhumerus -29.8188 -2.10375 74.843
lradius 136.669
lwrist 37.3832
lhand 2.73841 42.4891
lfingers 7.12502
lthumb 28.2106 70.3859
rfemur -36.438 5.16013 -3.45233
rtibia 61.6652
rfoot -19.6337 -3.54932
rtoes -22.6129
lfemur -30.1001 2.17939 -2.36068
ltibia 53.7005
lfoot -30.9497 0.534155
ltoes -41.4477
2
root 15.7147 16.0362 -20.2823 8.92108 -10.1383 -0.556673
lowerback 12.6419 -0.714863 2.24552
upperback 5.50444 -0.702327 0.306193
thorax -1.34115 -0.33214 -0.851639
lowerneck 8.03744 5.41073 17.3094
upperneck 11.4749 9.54446 -16.6033
head 3.6594 5.06535 -7.94971
rclavicle 2.57426e-014 -3.24019e-014
rhumerus -25.9206 27.9933 -99.0891
rradius 135.262
rwrist 1.60706
rhand -50.0766 30.0702
rfingers 7.12502
rthumb -22.6626 1.38087
lclavicle 2.57426e-014 -3.24019e-014
lhumerus -30.289 -2.02109 74.5748
lradius 136.901
lwrist 37.74
lhand 1.83127 42.4656
lfingers 7.12502
lthumb 27.3432 70.5024
rfemur -35.8504 4.49349 -2.84724
rtibia 61.237
rfoot -19.2206 -3.92001
rtoes -23.1643
lfemur -28.7028 1.97334 -2.40591
ltibia 51.7794
lfoot -30.1696 0.403602
ltoes -41.334
3
root 15.6763 16.1133 -20.2564 8.60833 -10.0958 -0.576981
lowerback 12.6573 -0.708877 2.20417
upperback 5.43926 -0.698614 0.25403
thorax -1.41774 -0.33131 -0.882538
lowerneck 8.45744 5.49632 17.2501
upperneck 10.9733 9.68075 -16.7072
head 3.46714 5.14814 -7.98109
rclavicle 4.12478e-015 -6.26172e-015
rhumerus -26.0891 28.0805 -99.2054
rradius 135.133
rwrist 1.70963
rhand -50.0458 30.5119
rfingers 7.12502
rthumb -22.6331 1.81888
lclavicle 4.12478e-015 -6.26172e-015
lhumerus -30.3563 -1.7849 74.3036
lradius 137.062
lwrist 38.158
lhand 1.45625 42.2174
lfingers 7.12502
lthumb 26.9845 70.3102
rfemur -35.3569 3.86864 -2.12474
rtibia 60.7628
rfoot -19.098 -4.16504
rtoes -22.7181
lfemur -27.2825 1.89003 -2.31269
ltibia 49.8461
lfoot -29.4137 0.235802
ltoes -41.2412
4
root 15.6305 16.2189 -20.2284 8.60481 -10.0941 -0.678215
lowerback 12.3247 -0.703375 2.07212
upperback 5.35953 -0.71189 0.315522
thorax -1.32017 -0.339727 -0.745304
lowerneck 8.34369 5.69739 17.0224
upperneck 10.9473 9.92353 -16.7128
head 3.51045 5.25453 -7.9273
rclavicle -3.40419e-015 -3.18055e-015
rhumerus -26.0441 28.3032 -99.1607
rradius 135.063
rwrist 1.71734
rhand -49.7956 29.5055
rfingers 7.12502
rthumb -22.3929 0.783429
lclavicle -3.40419e-015 -3.18055e-015
lhumerus -30.3746 -1.35607 74.0577
lradius 137.239
lwrist 38.9057
lhand 0.299921 41.9334
lfingers 7.12502
lthumb 25.8776 70.1926
rfemur -35.0639 3.15282 -1.24124
rtibia 60.0909
rfoot -19.4244 -4.23077
rtoes -22.3098
lfemur -25.9876 1.85735 -2.14556
ltibia 47.6882
lfoot -28.5383 0.117238
ltoes -41.1827
5
root 15.5807 16.3338 -20.196 8.57593 -10.1186 -0.690491
lowerback 11.9601 -0.661784 1.91867
upperback 5.2458 -0.680721 0.314828
thorax -1.23972 -0.325955 -0.666611
lowerneck 8.20985 5.81936 16.9065
upperneck 11.0933 10.0698 -16.6033
head 3.59182 5.31797 -7.85805
rclavicle 1.10574e-014 -2.32578e-014
rhumerus -25.9537 28.3855 -99.2067
rradius 135.124
rwrist 1.62522
rhand -49.0793 28.4252
rfingers 7.12502
rthumb -21.7052 -0.377969
lclavicle 1.10574e-014 -2.32578e-014
lhumerus -30.5237 -1.07239 73.8503
lradius 137.449
lwrist 39.8391
lhand -1.59646 41.9036
lfingers 7.12502
lthumb 24.0604 70.4153
rfemur -34.6914 2.40519 -0.436942
rtibia 59.263
rfoot -20.0205 -3.59366
rtoes -22.1596
lfemur -24.5886 1.68722 -2.08409
ltibia 45.4028
lfoot -27.4565 0.037039
ltoes -41.0917
